<svg xmlns="http://www.w3.org/2000/svg" viewBox="0 0 211.56 214.38"><defs><style>.a{fill:#00832d;}.b{fill:#34a853;}</style></defs><title>Google Voice logo</title><path class="a" d="M517.72,447.68v51.44a5.74,5.74,0,0,0,5.74,5.74h51.44c0-15.78-3.52-32.92-13.89-43.3S533.5,447.68,517.72,447.68Z" transform="translate(-406.22 -404.81)"/><path class="a" d="M573.79,618.13c-24,3.94-53.07-3.17-80.94-19.81l9.35-20.83,21.18-9.77,33.18,18.95Z" transform="translate(-406.22 -404.81)"/><path class="a" d="M407.29,451.62c-3.94,24,3.09,53.07,19.81,80.94l21.43-10L457.71,502l-18-29.41Z" transform="translate(-406.22 -404.81)"/><path class="b" d="M526.3,404.81a8.6,8.6,0,0,0-8.57,8.57v34.3a57.23,57.23,0,0,1,57.19,57.19h34.3a8.6,8.6,0,0,0,8.57-8.57A91.51,91.51,0,0,0,526.3,404.81Z" transform="translate(-406.22 -404.81)"/><path class="b" d="M609.63,598.41a11.36,11.36,0,0,0,.43-16L568.74,538.3a11.41,11.41,0,0,0-15.95.17l-29.32,29.24L573.79,618c13.63-2,23.84-7.8,33.09-17.06Z" transform="translate(-406.22 -404.81)"/><path class="b" d="M427.18,532.56a195.62,195.62,0,0,0,29,36.52,198.16,198.16,0,0,0,36.78,29.15l30.61-30.52L457.71,502" transform="translate(-406.22 -404.81)"/><path class="b" d="M479.74,480.6h0l4.72-4.54a14.44,14.44,0,0,0,0-20.32L445.62,416.9a14.44,14.44,0,0,0-20.32,0l-1.37.94c-9,9-14.4,20.66-16.63,33.78L457.71,502Z" transform="translate(-406.22 -404.81)"/></svg>