<svg width="45" height="45" viewBox="0 0 45 45" fill="none" xmlns="http://www.w3.org/2000/svg">
<path fill-rule="evenodd" clip-rule="evenodd" d="M23.2679 37.7188C20.6983 37.7647 18.2761 37.2242 16.0013 36.0972C13.806 35.0219 11.9704 33.5023 10.4943 31.5383C8.40078 28.7362 7.3253 25.6505 7.26788 22.2813C7.19372 17.9304 8.6644 14.1955 11.68 11.0765C14.6955 7.95748 18.3795 6.35909 22.7321 6.28128C27.0846 6.20347 30.8209 7.66921 33.9409 10.6785C37.0609 13.6879 38.6579 17.3679 38.7321 21.7188C38.8062 26.0697 37.3356 29.8046 34.32 32.9236C31.3045 36.0426 27.6204 37.641 23.2679 37.7188ZM22.7287 31.4789L23.24 31.4697C25.8096 31.4238 27.9897 30.456 29.7804 28.5664C31.5711 26.6767 32.444 24.4187 32.3992 21.7922C32.3545 19.1658 31.4051 16.9403 29.5512 15.1158C27.6972 13.2913 25.4854 12.402 22.9158 12.448L22.4045 12.4571L22.41 12.7755L20.5221 12.8092C19.844 13.0336 19.2319 13.2834 18.6858 13.5586L22.4222 13.4918L22.429 13.8897L18.0633 13.9677C17.7518 14.1591 17.4281 14.4037 17.0922 14.7016L22.4412 14.606L22.4473 14.9642L16.6657 15.0675C16.3565 15.3915 16.1377 15.6342 16.0093 15.7958L22.4595 15.6805L22.4656 16.0386L15.7007 16.1595C15.5208 16.3751 15.3547 16.6301 15.2023 16.9248L22.4785 16.7947L22.4846 17.1529L14.9725 17.2871L14.6307 18.0098L22.4968 17.8692L22.5029 18.2273L14.4795 18.3707C14.4284 18.4513 14.3715 18.5783 14.3089 18.7519C14.2463 18.9256 14.2026 19.0524 14.1777 19.1325L22.5158 18.9834L22.5225 19.3813L14.1058 19.5318C14.081 19.6119 14.0502 19.7318 14.0136 19.8917C13.977 20.0516 13.9463 20.1716 13.9214 20.2516L22.5348 20.0976L22.5409 20.4558L13.8882 20.6105C13.8411 20.9298 13.819 21.169 13.8217 21.3282L22.5531 21.1721L22.5592 21.5303L13.7885 21.687L13.8014 22.4431L22.5721 22.2863L22.5782 22.6445L13.8075 22.8013C13.8088 22.8809 13.8174 23.0001 13.8332 23.1591C13.8491 23.318 13.8708 23.4371 13.8983 23.5162L22.5904 23.3608L22.5965 23.7189L13.9831 23.8729C14.041 24.1903 14.0975 24.4282 14.1526 24.5864L22.6087 24.4353L22.6155 24.8332L14.2774 24.9823L14.5256 25.6943L22.6277 25.5495L22.6338 25.9076L14.689 26.0497L15.0552 26.7596L22.646 26.6239L22.6521 26.9821L15.2973 27.1136C15.4591 27.3761 15.6205 27.612 15.7815 27.8214L22.6643 27.6984L22.6711 28.0963L16.0636 28.2145C16.1436 28.2927 16.2571 28.41 16.404 28.5666C16.5509 28.7232 16.6644 28.8406 16.7444 28.9188L22.6833 28.8126L22.6894 29.1708L17.1438 29.2699C17.463 29.5296 17.7817 29.7627 18.0999 29.9694L22.7016 29.8871L22.7077 30.2453L18.696 30.317C19.1463 30.5743 19.6485 30.8042 20.2028 31.0066L22.7199 30.9616L22.7287 31.4789Z" fill="black"/>
</svg>
