<svg width="97" height="39" viewBox="0 0 97 39" fill="none" xmlns="http://www.w3.org/2000/svg">
<path d="M0.335938 19.8C0.335938 25.112 2.17594 29.64 5.85594 33.384C9.56794 37.128 14.0479 39 19.2959 39C24.5439 39 29.0079 37.128 32.6879 33.384C36.3999 29.64 38.2559 25.112 38.2559 19.8C38.2559 14.488 36.3999 9.95997 32.6879 6.21597C29.0079 2.47198 24.5439 0.599976 19.2959 0.599976C15.2319 0.599976 11.4879 1.84797 8.06394 4.34397C5.66394 6.10397 3.79194 8.31197 2.44794 10.968C1.03994 13.72 0.335938 16.664 0.335938 19.8ZM7.87194 19.272H8.49594V16.2C8.75194 15.528 9.03994 14.92 9.35994 14.376V19.272H9.79194V13.656C10.0479 13.272 10.3359 12.888 10.6559 12.504V19.272H11.0879V12.024C11.1839 11.928 11.3279 11.8 11.5199 11.64C11.7119 11.448 11.8559 11.304 11.9519 11.208V19.272H12.4319V10.872C12.6879 10.68 12.9759 10.488 13.2959 10.296V19.272H13.7279V10.008L14.5919 9.57597V19.272H15.0239V9.38397L15.8879 9.09597V19.272H16.3679V8.95197C16.5599 8.88797 16.8479 8.82397 17.2319 8.75997V19.272H17.6639V8.66397C17.7599 8.63198 17.9039 8.61598 18.0959 8.61598C18.2879 8.58398 18.4319 8.56798 18.5279 8.56798V19.272H18.9599V8.56798H19.8719V19.272H20.3039V8.61598C20.4959 8.61598 20.7839 8.64797 21.1679 8.71197V19.272H21.5999V8.75997C21.6959 8.79198 21.8399 8.83998 22.0319 8.90397C22.2239 8.93597 22.3679 8.96797 22.4639 8.99998V19.272H22.9439V9.09597C23.0399 9.12797 23.1839 9.19197 23.3759 9.28798C23.5999 9.35197 23.7599 9.41597 23.8559 9.47998V19.272H24.2879V9.67198L25.1519 10.104V19.272H25.5839V10.392C25.9359 10.584 26.2399 10.792 26.4959 11.016V19.272H26.9279V11.4C27.1199 11.56 27.4079 11.832 27.7919 12.216V19.272H28.2239V12.744C28.5759 13.16 28.8639 13.56 29.0879 13.944V19.272H29.5679V14.712C29.8879 15.384 30.1759 16.136 30.4319 16.968V19.272H30.8159V19.896C30.8159 23.032 29.6959 25.72 27.4559 27.96C25.2159 30.168 22.5119 31.272 19.3439 31.272C16.1759 31.272 13.4719 30.168 11.2319 27.96C8.99194 25.72 7.87194 23.032 7.87194 19.896V19.272Z" fill="#222222"/>
<path d="M42.2891 39H42.7211V1.31997L43.6331 2.75997V39H44.0651V3.52798L44.9291 4.96797V39H45.3611V5.73598L46.2731 7.17597V39H46.7051V7.94398L47.5691 9.43197V39H48.0491V10.152L48.9131 11.64V39H49.3451V12.36L50.2571 13.848V39H50.6891V14.568L51.5531 16.056V39H51.9851V16.776L52.8971 18.264V39H53.3291V18.984L54.1931 20.472V39H54.6731V21.192L55.5371 22.68V39H55.9691V23.4L56.8811 24.888V39H57.3131V25.608L58.1771 27.096V39H58.6091V27.816L59.5211 29.304V39H59.9531V30.024L60.8171 31.512V39H61.2971V32.232L62.1611 33.72V39H62.5931V34.44L63.5051 35.928V39H63.9371V36.648L64.8011 38.136V39H65.2331V0.647975H64.8011V22.872L63.9371 21.384V0.647975H63.5051V20.664L62.5931 19.176V0.647975H62.1611V18.456L61.2971 16.968V0.647975H60.8171V16.2L59.9531 14.76V0.647975H59.5211V13.992L58.6091 12.552V0.647975H58.1771V11.784L57.3131 10.344V0.647975H56.8811V9.57597L55.9691 8.08797V0.647975H55.5371V7.36797L54.6731 5.87997V0.647975H54.1931V5.15997L53.3291 3.67197V0.647975H52.8971V2.95197L51.9851 1.46397V0.599976H51.5531L42.2891 0.647975V39Z" fill="#222222"/>
<path d="M95.2848 0.599976L70.1328 0.647975V8.75997L95.2848 8.71197V0.599976ZM86.0208 15.768L70.1328 15.816V23.832L86.0688 23.784L86.0208 15.768ZM70.1328 31.08V39L96.0048 38.952V31.032L70.1328 31.08ZM70.1328 29.784V30.216H86.0208V29.784H70.1328ZM70.1328 28.44V28.92H86.0208V28.44H70.1328ZM70.1328 27.144V27.576H86.0208V27.144H70.1328ZM70.1328 25.848V26.28H86.0208V25.848H70.1328ZM70.1328 24.552V24.984H86.0208V24.552H70.1328ZM70.1328 14.76V15.24H86.0208V14.76H70.1328ZM70.1328 13.464V13.896H86.0208V13.464H70.1328ZM70.1328 12.168V12.6H86.0208V12.168H70.1328ZM70.1328 10.872V11.304H86.0208V10.872H70.1328ZM70.1328 9.57597V10.008H86.0208V9.57597H70.1328Z" fill="#222222"/>
</svg>
