<svg xmlns="http://www.w3.org/2000/svg" viewBox="0 0 32 32" fill="none"><path fill="#627EEA" d="M16 32C24.8366 32 32 24.8366 32 16C32 7.16344 24.8366 0 16 0C7.16344 0 0 7.16344 0 16C0 24.8366 7.16344 32 16 32Z"/><path fill="white" fill-opacity="0.602" d="M16.498 4v8.87l7.497 3.35L16.498 4z"/><path fill="white" d="M16.498 4L9 16.22l7.498-3.35V4z"/><path fill="white" fill-opacity="0.602" d="M16.498 21.968v6.027L24 17.616l-7.502 4.352z"/><path fill="white" d="M16.498 27.995v-6.028L9 17.616l7.498 10.379z"/><path fill="white" fill-opacity="0.2" d="M16.498 20.573l7.497-4.353-7.497-3.348v7.701z"/><path fill="white" fill-opacity="0.602" d="M9 16.22l7.498 4.353v-7.701L9 16.22z"/></svg>