<svg width="125" height="50" viewBox="0 0 125 50" fill="none" xmlns="http://www.w3.org/2000/svg">
<path d="M54.5175 50H55.0777V0.937499L56.2603 2.8125V50H56.8204V3.8125L57.9408 5.6875V50H58.5009V6.6875L59.6835 8.5625V50H60.2437V9.5625L61.364 11.5V50H61.9864V12.4375L63.1068 14.375V50H63.6669V15.3125L64.8495 17.25V50H65.4097V18.1875L66.53 20.125V50H67.0902V21.0625L68.2728 23V50H68.833V23.9375L69.9533 25.875V50H70.5757V26.8125L71.696 28.75V50H72.2562V29.6875L73.4388 31.625V50H73.999V32.5625L75.1193 34.5V50H75.6795V35.4375L76.8621 37.375V50H77.4222V38.3125L78.5426 40.25V50H79.165V41.1875L80.2853 43.125V50H80.8455V44.0625L82.0281 46V50H82.5882V46.9375L83.7086 48.875V50H84.2687V0.0624992H83.7086V29L82.5882 27.0625V0.0624992H82.0281V26.125L80.8455 24.1875V0.0624992H80.2853V23.25L79.165 21.3125V0.0624992H78.5426V20.3125L77.4222 18.4375V0.0624992H76.8621V17.4375L75.6795 15.5625V0.0624992H75.1193V14.5625L73.999 12.6875V0.0624992H73.4388V11.6875L72.2562 9.75V0.0624992H71.696V8.8125L70.5757 6.875V0.0624992H69.9533V5.9375L68.833 4V0.0624992H68.2728V3.0625L67.0902 1.125V0H66.53L54.5175 0.0624992V50Z" fill="white"/>
<path d="M124.066 0L91.4521 0.0624992V10.625L124.066 10.5625V0ZM112.054 19.75L91.4521 19.8125V30.25L112.116 30.1875L112.054 19.75ZM91.4521 39.6875V50L125 49.9375V39.625L91.4521 39.6875ZM91.4521 38V38.5625H112.054V38H91.4521ZM91.4521 36.25V36.875H112.054V36.25H91.4521ZM91.4521 34.5625V35.125H112.054V34.5625H91.4521ZM91.4521 32.875V33.4375H112.054V32.875H91.4521ZM91.4521 31.1875V31.75H112.054V31.1875H91.4521ZM91.4521 18.4375V19.0625H112.054V18.4375H91.4521ZM91.4521 16.75V17.3125H112.054V16.75H91.4521ZM91.4521 15.0625V15.625H112.054V15.0625H91.4521ZM91.4521 13.375V13.9375H112.054V13.375H91.4521ZM91.4521 11.6875V12.25H112.054V11.6875H91.4521Z" fill="white"/>
<path d="M25.326 49.5131C32.213 49.3924 38.0419 46.894 42.8126 42.018C47.5827 37.1003 49.9084 31.2254 49.7896 24.3931C49.6708 17.5608 47.1428 11.7917 42.2054 7.08585C37.2674 2.33833 31.3548 0.0249299 24.4679 0.145642C17.5809 0.266355 11.7524 2.78555 6.98236 7.70323C2.21157 12.5792 -0.114437 18.4334 0.00432705 25.2657C0.0962967 30.5566 1.79904 35.4025 5.11257 39.8034C7.44871 42.8879 10.3537 45.2749 13.8276 46.9642C17.4274 48.7348 21.2602 49.5844 25.326 49.5131ZM24.4709 39.7141L24.4568 38.9017L20.474 38.9715C19.597 38.6535 18.8022 38.2924 18.0896 37.8882L24.4373 37.7769L24.4275 37.2145L17.1464 37.3421C16.6427 37.0176 16.1384 36.6513 15.6333 36.2435L24.4079 36.0897L24.3982 35.5273L15.0012 35.692C14.8746 35.5692 14.7053 35.3846 14.4936 35.1383C14.2403 34.8927 14.0503 34.7085 13.9237 34.5857L24.3786 34.4024L24.3677 33.7775L13.4772 33.9684C13.2225 33.6395 12.9671 33.2689 12.7109 32.8567L24.3482 32.6527L24.3384 32.0903L12.3277 32.3008L11.7481 31.1858L24.3189 30.9654L24.3091 30.403L11.4894 30.6277L11.0964 29.5095L24.2895 29.2782L24.2787 28.6533L10.8989 28.8878C10.8116 28.6393 10.7221 28.2658 10.6304 27.7674L24.2591 27.5285L24.2493 26.9661L10.4962 27.2071C10.4525 27.0829 10.4285 26.8958 10.4242 26.6458C10.3783 26.3966 10.3543 26.2095 10.3521 26.0845L24.2298 25.8412L24.22 25.2788L10.3424 25.5221L10.3217 24.3347L24.1994 24.0915L24.1896 23.5291L10.3742 23.7712C10.3698 23.5213 10.4048 23.1456 10.4791 22.6442L24.17 22.4043L24.1603 21.8418L10.5316 22.0807C10.5709 21.955 10.6298 21.7664 10.7085 21.515C10.7456 21.2643 10.7838 21.0761 10.8232 20.9504L24.1407 20.717L24.1299 20.0921L10.9368 20.3233C10.9761 20.1976 11.0558 20.0087 11.1759 19.7566C11.2538 19.4635 11.3332 19.2537 11.414 19.1273L24.1092 18.9048L24.0994 18.3424L11.6531 18.5605L12.1937 17.4259L24.0799 17.2175L24.0701 16.6551L12.5573 16.8569C12.7982 16.3943 13.061 15.9938 13.3456 15.6554L24.0495 15.4678L24.0397 14.9054L13.8337 15.0843C14.0368 14.8307 14.3829 14.4496 14.8721 13.9409L24.0201 13.7806L24.0104 13.2182L15.5469 13.3665C16.0782 12.8988 16.5903 12.5147 17.0831 12.2144L23.9908 12.0933L23.9799 11.4684L18.068 11.572C18.932 11.1402 19.9004 10.7481 20.9733 10.3959L23.9604 10.3436L23.9517 9.84366L24.7607 9.82948C28.8265 9.75822 32.3368 11.1552 35.2917 14.0206C38.205 16.8866 39.6975 20.3818 39.7692 24.5062C39.8409 28.6306 38.4708 32.176 35.6588 35.1424C32.8054 38.1095 29.3457 39.6287 25.2799 39.6999L24.4709 39.7141Z" fill="white"/>
</svg>
