<svg xmlns="http://www.w3.org/2000/svg" viewBox="0 0 32 32" fill="none"><path fill="#14F195" d="M16 32C24.8366 32 32 24.8366 32 16C32 7.16344 24.8366 0 16 0C7.16344 0 0 7.16344 0 16C0 24.8366 7.16344 32 16 32Z"/><path fill="white" d="M9.925 19.687l2.962-1.534a.25.25 0 01.226 0l5.863 3.036a.25.25 0 01.001.447l-2.963 1.534a.25.25 0 01-.226 0l-5.863-3.036a.25.25 0 010-.447zm0-5.82l2.962-1.534a.25.25 0 01.226 0l5.863 3.036a.25.25 0 01.001.447l-2.963 1.534a.25.25 0 01-.226 0l-5.863-3.036a.25.25 0 010-.447zm8.825-3.037l-2.962 1.534a.25.25 0 01-.226 0L9.7 9.328a.25.25 0 01-.001-.447l2.963-1.534a.25.25 0 01.226 0l5.863 3.036a.25.25 0 010 .447z"/></svg>