<svg width="250" height="250" viewBox="0 0 250 250" fill="none" xmlns="http://www.w3.org/2000/svg">
<circle cx="125" cy="125" r="125" fill="#222222"/>
<path fill-rule="evenodd" clip-rule="evenodd" d="M193.048 167.892C193.364 168.208 193.903 167.983 193.902 167.537L193.775 131.908V84.5395C193.775 75.8192 186.705 68.75 177.985 68.75H104.301C95.5807 68.75 88.5115 75.8192 88.5115 84.5395V106.25H147C148.657 106.25 150 107.593 150 109.25V147.697H172.853L193.048 167.892Z" fill="white"/>
<path opacity="0.3" fill-rule="evenodd" clip-rule="evenodd" d="M62.4066 162.5V131.25C62.4066 124.346 68.0031 118.75 74.9066 118.75H124.907C131.81 118.75 137.407 124.346 137.407 131.25V162.5C137.407 169.404 131.81 175 124.907 175H75.6299L63.4158 186.69C63.0978 186.995 62.5701 186.769 62.5701 186.329V164.527C62.4625 163.867 62.4066 163.19 62.4066 162.5ZM87.5 138C87.5 137.724 87.7239 137.5 88 137.5H124.5C124.776 137.5 125 137.724 125 138V143.25C125 143.526 124.776 143.75 124.5 143.75H88C87.7239 143.75 87.5 143.526 87.5 143.25V138ZM106.75 150C106.474 150 106.25 150.224 106.25 150.5V155.75C106.25 156.026 106.474 156.25 106.75 156.25H124.5C124.776 156.25 125 156.026 125 155.75V150.5C125 150.224 124.776 150 124.5 150H106.75Z" fill="white"/>
</svg>
