<svg width="250" height="250" viewBox="0 0 250 250" fill="none" xmlns="http://www.w3.org/2000/svg">
<circle cx="125" cy="125" r="125" fill="#222222"/>
<path fill-rule="evenodd" clip-rule="evenodd" d="M68.75 88.5C68.75 87.9477 69.1977 87.5 69.75 87.5H180.25C180.802 87.5 181.25 87.9477 181.25 88.5V105.25C181.25 105.802 180.802 106.25 180.25 106.25H69.75C69.1977 106.25 68.75 105.802 68.75 105.25V88.5ZM74.9999 119.75C74.9999 119.198 75.4476 118.75 75.9999 118.75H117.75C118.302 118.75 118.75 119.198 118.75 119.75V174C118.75 174.552 118.302 175 117.75 175H75.9999C75.4476 175 74.9999 174.552 74.9999 174V119.75ZM132.25 118.75C131.698 118.75 131.25 119.198 131.25 119.75V174C131.25 174.552 131.698 175 132.25 175H174C174.552 175 175 174.552 175 174V119.75C175 119.198 174.552 118.75 174 118.75H132.25Z" fill="#FCFCFC"/>
<path opacity="0.3" d="M140.283 63.5497C143.155 61.635 147.036 62.4111 148.95 65.2831C150.865 68.1552 150.089 72.0356 147.217 73.9503L125 88.7616L102.783 73.9503C99.9111 72.0356 99.135 68.1552 101.05 65.2831C102.964 62.4111 106.845 61.635 109.717 63.5497L125 73.7384L140.283 63.5497Z" fill="#FCFCFC"/>
</svg>
