<svg width="250" height="250" viewBox="0 0 250 250" fill="none" xmlns="http://www.w3.org/2000/svg">
<circle cx="125" cy="125" r="125" fill="#222222"/>
<path opacity="0.3" fill-rule="evenodd" clip-rule="evenodd" d="M125 156.25C152.614 156.25 175 133.864 175 106.25C175 78.6358 152.614 56.25 125 56.25C97.3857 56.25 74.9999 78.6358 74.9999 106.25C74.9999 133.864 97.3857 156.25 125 156.25Z" fill="white"/>
<path opacity="0.3" fill-rule="evenodd" clip-rule="evenodd" d="M90.8634 106.25L116.05 171.015L124.85 167.593L133.591 171.046L159.189 106.25H90.8634ZM109.136 118.75H140.811L124.849 159.153L109.136 118.75Z" fill="#DADADA"/>
<path opacity="0.3" d="M112.5 187.5H137.5V198C137.5 199.105 136.604 200 135.5 200H114.5C113.395 200 112.5 199.105 112.5 198V187.5Z" fill="#FCFCFC"/>
<path d="M100 152C100 150.895 100.896 150 102 150H148C149.105 150 150 150.895 150 152V160.5C150 161.605 149.105 162.5 148 162.5H102C100.896 162.5 100 161.605 100 160.5V152Z" fill="white"/>
<path d="M100 164.5C100 163.395 100.896 162.5 102 162.5H148C149.105 162.5 150 163.395 150 164.5V173C150 174.105 149.105 175 148 175C149.105 175 150 175.895 150 177V185.5C150 186.605 149.105 187.5 148 187.5H102C100.896 187.5 100 186.605 100 185.5V177C100 175.895 100.896 175 102 175C100.896 175 100 174.105 100 173V164.5Z" fill="white"/>
</svg>
