<svg width="250" height="250" viewBox="0 0 250 250" fill="none" xmlns="http://www.w3.org/2000/svg">
<circle cx="125" cy="125" r="125" fill="#222222"/>
<path opacity="0.3" d="M118.125 62.5C121.577 62.5 124.375 65.2982 124.375 68.75C124.375 72.2018 121.577 75 118.125 75H87.5C80.5964 75 75 80.5964 75 87.5V162.5C75 169.404 80.5964 175 87.5 175H162.5C169.404 175 175 169.404 175 162.5V150C175 146.548 177.798 143.75 181.25 143.75C184.702 143.75 187.5 146.548 187.5 150V162.5C187.5 176.307 176.307 187.5 162.5 187.5H87.5C73.6929 187.5 62.5 176.307 62.5 162.5V87.5C62.5 73.6929 73.6929 62.5 87.5 62.5H118.125Z" fill="#595959"/>
<path d="M93.7787 136.858C93.7787 132.091 92.7572 113.279 107.597 98.3537C117.585 88.309 132.533 86.5668 150.409 85.7723V52.5983C150.409 51.9475 151.181 51.6056 151.663 52.0428L202.104 97.8039C202.43 98.0995 202.432 98.6107 202.11 98.9097L151.669 145.623C151.189 146.068 150.409 145.727 150.409 145.073V111.923C139.059 112.235 130.975 112.957 123.629 115.293C108.193 120.204 99.5812 142.671 98.2816 146.295C98.1727 146.599 97.891 146.79 97.5682 146.79H94.5004C94.0861 146.79 93.7503 146.455 93.7509 146.041C93.7549 143.181 93.7787 139.173 93.7787 136.858Z" fill="white"/>
</svg>
