<svg width="250" height="250" viewBox="0 0 250 250" fill="none" xmlns="http://www.w3.org/2000/svg">
<circle cx="125" cy="125" r="125" fill="#222222"/>
<path fill-rule="evenodd" clip-rule="evenodd" d="M95.3513 168.307L87.3681 177.926C71.7309 164.948 62.5001 145.721 62.5001 125C62.5001 104.308 71.7052 85.1047 87.3054 72.1261L95.2999 81.7353C82.5247 92.3637 75.0001 108.061 75.0001 125C75.0001 141.962 82.5457 157.679 95.3513 168.307ZM154.649 168.307L162.632 177.926C178.269 164.948 187.5 145.721 187.5 125C187.5 104.308 178.295 85.1047 162.695 72.1261L154.7 81.7353C167.476 92.3637 175 108.061 175 125C175 141.962 167.455 157.679 154.649 168.307ZM138.616 149.124L146.568 158.768C156.58 150.512 162.5 138.233 162.5 125C162.5 111.81 156.619 99.5671 146.663 91.3101L138.684 100.932C145.806 106.839 150 115.57 150 125C150 134.461 145.778 143.218 138.616 149.124ZM103.432 158.768L111.384 149.124C104.222 143.218 100 134.461 100 125C100 115.57 104.194 106.839 111.316 100.932L103.337 91.3101C93.3807 99.5671 87.5 111.81 87.5 125C87.5 138.233 93.4196 150.512 103.432 158.768Z" fill="white"/>
<path fill-rule="evenodd" clip-rule="evenodd" d="M125 137.5C131.903 137.5 137.5 131.904 137.5 125C137.5 118.096 131.903 112.5 125 112.5C118.096 112.5 112.5 118.096 112.5 125C112.5 131.904 118.096 137.5 125 137.5Z" fill="#646464"/>
</svg>
