<svg width="250" height="250" viewBox="0 0 250 250" fill="none" xmlns="http://www.w3.org/2000/svg">
<circle cx="125" cy="125" r="125" fill="#222222"/>
<path opacity="0.3" fill-rule="evenodd" clip-rule="evenodd" d="M159.779 130.859C158.854 134.825 154.917 137.29 150.95 136.365C146.984 135.439 144.519 131.474 145.445 127.507L158.35 72.1988C159.129 68.8612 162.104 66.5 165.531 66.5H178.437C182.51 66.5 185.811 69.8017 185.811 73.8745C185.811 77.9473 182.51 81.249 178.437 81.249H171.383L159.779 130.859Z" fill="white"/>
<path fill-rule="evenodd" clip-rule="evenodd" d="M168.869 91.2298C168.971 90.6203 168.501 90.0654 167.883 90.0654H63.4592C62.7948 90.0654 62.3152 90.7013 62.4977 91.3401L76.7116 141.089C76.8162 141.455 77.1196 141.73 77.4942 141.798L157.003 156.254C157.552 156.354 158.077 155.985 158.169 155.435L168.869 91.2298Z" fill="white"/>
<path opacity="0.3" fill-rule="evenodd" clip-rule="evenodd" d="M100 171.875C100 177.053 95.8027 181.25 90.625 181.25C85.4473 181.25 81.25 177.053 81.25 171.875C81.25 166.697 85.4473 162.5 90.625 162.5C95.8027 162.5 100 166.697 100 171.875ZM156.25 171.875C156.25 177.053 152.053 181.25 146.875 181.25C141.697 181.25 137.5 177.053 137.5 171.875C137.5 166.697 141.697 162.5 146.875 162.5C152.053 162.5 156.25 166.697 156.25 171.875Z" fill="white"/>
</svg>
