<svg width="252" height="252" viewBox="0 0 252 252" fill="none" xmlns="http://www.w3.org/2000/svg">
<circle cx="126" cy="126" r="125" transform="rotate(0.392971 126 126)" fill="#222222"/>
<path opacity="0.3" fill-rule="evenodd" clip-rule="evenodd" d="M116.78 98.2727C116.801 98.0123 117.02 97.8127 117.281 97.8145L122.616 97.851C122.872 97.8528 123.086 98.0489 123.11 98.3047L125.979 129.125L147.516 141.629C147.672 141.719 147.767 141.885 147.765 142.065L147.729 147.37C147.727 147.699 147.412 147.937 147.094 147.848L113.813 138.525C113.582 138.461 113.429 138.241 113.449 138.002L116.78 98.2727Z" fill="white"/>
<path fill-rule="evenodd" clip-rule="evenodd" d="M86.8848 55.5971C86.6228 55.2805 86.1121 55.3975 86.014 55.7965L76.6714 93.8072C76.5915 94.1324 76.8475 94.4426 77.1818 94.426L116.363 92.4751C116.774 92.4547 116.986 91.9741 116.724 91.657L106.004 78.702C111.477 76.8737 117.273 75.9389 123.218 75.9797C152.558 76.1809 176.179 100.128 175.977 129.468C175.776 158.807 151.829 182.428 122.489 182.227C93.1499 182.026 69.5287 158.078 69.73 128.739C69.7638 123.814 70.4638 118.994 71.7962 114.367L59.7841 110.908C58.1608 116.546 57.2725 122.498 57.2303 128.653C56.9817 164.896 86.1608 194.478 122.404 194.727C158.646 194.975 188.229 165.796 188.477 129.553C188.726 93.3107 159.547 63.7285 123.304 63.4799C114.188 63.4174 105.493 65.2168 97.58 68.5221L86.8848 55.5971Z" fill="white"/>
</svg>
