<svg width="250" height="250" viewBox="0 0 250 250" fill="none" xmlns="http://www.w3.org/2000/svg">
<circle cx="125" cy="125" r="125" fill="#222222"/>
<path opacity="0.3" d="M162.5 62.5H190.75C192.407 62.5 193.75 63.8431 193.75 65.5V184.5C193.75 186.157 192.407 187.5 190.75 187.5H162.5V62.5Z" fill="white"/>
<path fill-rule="evenodd" clip-rule="evenodd" d="M75 63.5C75 62.9477 75.4477 62.5 76 62.5H172C173.657 62.5 175 63.8431 175 65.5V184.5C175 186.157 173.657 187.5 172 187.5H76C75.4477 187.5 75 187.052 75 186.5V63.5ZM125 118.75C118.096 118.75 112.5 113.154 112.5 106.25C112.5 99.3464 118.096 93.75 125 93.75C131.904 93.75 137.5 99.3464 137.5 106.25C137.5 113.154 131.904 118.75 125 118.75ZM124.942 125C108.548 125 95.0981 134.479 93.7523 153.122C93.679 154.137 95.4053 156.25 96.276 156.25H153.634C156.243 156.25 156.283 153.889 156.243 153.125C155.225 133.958 141.567 125 124.942 125Z" fill="white"/>
</svg>
